<?xml version="1.0" standalone="no"?>
<!DOCTYPE svg PUBLIC "-//W3C//DTD SVG 20010904//EN"
 "http://www.w3.org/TR/2001/REC-SVG-20010904/DTD/svg10.dtd">
<svg version="1.0" xmlns="http://www.w3.org/2000/svg"
 width="1600.000000pt" height="1370.000000pt" viewBox="0 0 1600.000000 1370.000000"
 preserveAspectRatio="xMidYMid meet">

<g transform="translate(0.000000,1370.000000) scale(0.300000,-0.100000)"
fill="#000000" stroke="none">
<path d="M10661 8298 c-5 -13 -68 -170 -140 -350 l-132 -326 94 -94 c243 -243
297 -510 166 -824 -71 -170 -147 -265 -292 -363 -146 -98 -273 -143 -547 -191
-422 -76 -658 -143 -860 -246 -164 -83 -266 -178 -330 -304 -25 -49 -72 -181
-66 -187 1 -2 28 12 59 31 180 108 466 143 1037 128 704 -19 1001 24 1286 183
291 163 511 512 594 940 93 484 -51 924 -427 1301 -107 107 -282 244 -375 294
l-58 31 -9 -23z"/>
<path d="M12083 8280 c-151 -28 -314 -138 -388 -264 -131 -223 -106 -500 61
-684 64 -71 156 -132 244 -163 93 -33 278 -33 364 -1 184 68 323 217 371 398
19 72 22 203 5 275 -45 197 -205 366 -399 423 -69 20 -191 28 -258 16z"/>
<path d="M8649 7822 c-96 -63 -155 -211 -229 -572 -40 -191 -42 -197 -97 -289
-110 -182 -185 -260 -240 -249 -16 3 -18 14 -17 103 1 114 26 194 75 249 l28
31 1 -52 c0 -56 10 -71 33 -49 34 35 29 165 -9 207 -23 26 -85 25 -141 -2 -60
-29 -115 -96 -151 -185 -37 -90 -149 -285 -192 -334 l-31 -35 6 70 c4 39 15
119 26 179 20 116 24 202 10 224 -17 28 -55 8 -91 -46 l-34 -52 -21 24 c-52
62 -141 71 -216 22 -41 -27 -46 -34 -149 -191 -84 -129 -190 -224 -190 -169 0
8 16 70 35 137 40 140 43 174 14 211 -49 62 -128 9 -243 -164 -31 -47 -56 -80
-56 -75 0 6 6 49 13 96 19 124 -6 199 -65 199 -31 0 -65 -46 -94 -128 -31 -88
-99 -191 -185 -286 -68 -73 -114 -106 -153 -106 -21 0 -26 5 -26 26 0 42 38
98 85 126 56 34 90 87 106 163 14 69 8 106 -22 134 -69 64 -185 15 -284 -120
-94 -127 -118 -320 -52 -416 86 -126 248 -59 414 171 64 88 65 90 59 51 -15
-89 -18 -211 -7 -252 15 -55 56 -103 88 -103 59 0 84 39 164 254 51 136 77
183 62 111 -10 -49 -6 -141 7 -165 19 -36 42 -50 79 -50 68 0 155 72 224 183
26 43 32 47 38 31 4 -10 8 -32 8 -49 1 -37 32 -88 66 -111 18 -12 38 -15 71
-11 55 6 101 45 148 127 l31 55 6 -75 c3 -41 13 -90 22 -107 15 -28 23 -33 52
-33 46 0 89 39 162 147 l58 85 6 -33 c14 -84 70 -139 148 -147 113 -11 187 43
286 209 37 60 67 109 68 109 1 0 2 -93 2 -208 l0 -207 33 -68 c41 -83 82 -117
142 -117 38 0 48 5 84 43 68 72 92 119 227 437 l11 25 17 -33 c21 -40 66 -72
104 -72 56 0 109 43 166 135 17 28 31 48 32 45 0 -3 2 -35 3 -72 4 -85 29
-132 73 -136 41 -4 92 41 163 146 29 42 57 81 61 86 4 5 22 -3 39 -18 25 -21
42 -26 83 -26 29 0 69 5 90 11 22 6 41 9 43 6 2 -2 -47 -49 -110 -105 -142
-126 -168 -158 -174 -221 -6 -61 6 -81 76 -133 51 -38 62 -43 113 -42 159 2
354 194 389 383 13 71 13 150 -1 191 -12 32 -11 32 78 119 89 85 130 142 118
161 -12 19 -31 10 -70 -31 -36 -37 -152 -135 -182 -153 -7 -3 -38 1 -69 10
-38 11 -73 14 -105 10 -39 -5 -49 -4 -49 8 0 24 84 129 144 181 31 26 61 56
67 66 12 23 -2 56 -42 98 -29 30 -36 33 -73 27 -104 -17 -245 -166 -348 -370
-22 -44 -51 -98 -66 -120 -73 -116 -93 -146 -102 -151 -16 -10 -12 92 9 211
34 188 35 217 14 242 -25 31 -45 21 -85 -39 -30 -46 -48 -61 -48 -39 0 21 -79
62 -122 62 -103 2 -180 -75 -227 -227 -27 -84 -210 -461 -240 -492 -46 -49
-61 -9 -61 161 0 141 23 303 55 386 58 154 132 470 142 605 6 87 -8 134 -46
155 -26 13 -32 13 -62 -8z m528 -708 c8 -20 -9 -56 -65 -133 -51 -72 -62 -68
-37 11 35 107 85 167 102 122z m-1622 -145 c5 -16 -7 -42 -50 -105 -31 -46
-61 -84 -66 -84 -12 0 -12 -2 11 65 26 75 67 145 85 145 7 0 17 -10 20 -21z
m-1185 -79 c0 -19 -11 -41 -30 -62 -24 -27 -29 -30 -30 -14 0 18 46 106 55
106 3 0 5 -13 5 -30z m3515 -42 c-15 -49 -61 -116 -121 -175 -79 -78 -142
-115 -186 -111 l-33 3 60 64 c78 84 256 240 273 241 9 0 11 -7 7 -22z"/>
</g>
</svg>
